<?xml version="1.0" encoding="utf-8"?>
<!-- Generator: Adobe Illustrator 19.2.0, SVG Export Plug-In . SVG Version: 6.00 Build 0)  -->
<svg version="1.1" id="Capa_1" xmlns="http://www.w3.org/2000/svg" xmlns:xlink="http://www.w3.org/1999/xlink" x="0px" y="0px"
	 viewBox="0 0 319.3 319.3" style="enable-background:new 0 0 319.3 319.3;" xml:space="preserve">
<g>
	<path d="M175.2,131l20.5,7.4l0.6-1.8c3.7-10.2-1.7-21.5-11.9-25.2l-22-7.9c-2.2-0.8-4.4-1.2-6.7-1.2c-8.3,0-15.7,5.2-18.5,13
		l-0.6,1.8l21.9,7.9c0.6,0.2,0.8,0.8,0.6,1.4c-0.2,0.5-0.8,0.8-1.4,0.6l-21.9-7.9l-3.5,9.7l21.9,7.9c0.6,0.2,0.8,0.8,0.6,1.4
		c-0.2,0.5-0.8,0.8-1.4,0.6l-21.9-7.9l-3.5,9.7l21.9,7.9c0.6,0.2,0.8,0.8,0.6,1.4c-0.2,0.5-0.8,0.8-1.4,0.6l-21.9-7.9l-3.5,9.7
		l21.9,7.9c0.3,0.1,0.5,0.3,0.6,0.5c0.1,0.3,0.1,0.5,0,0.8c-0.2,0.5-0.8,0.8-1.4,0.6l-22-7.9l-0.6,1.9c-2.8,9.2,1.5,18.9,9.8,23.2
		v15.8l0.1,0l-0.1,21.8H146l0.2-16.7l0.1,0l15.7-11c0.5,0,1,0.1,1.5,0.1c8,0,15.1-4.8,18.2-12.1l0.8-1.8l-20.5-7.4
		c-0.3-0.1-0.5-0.3-0.6-0.5c-0.1-0.3-0.1-0.5,0-0.8c0.2-0.5,0.8-0.8,1.4-0.6l20.5,7.4l3.5-9.7l-20.5-7.4c-0.3-0.1-0.5-0.3-0.6-0.5
		c-0.1-0.3-0.1-0.5,0-0.8c0.2-0.5,0.8-0.8,1.4-0.6l20.5,7.4l3.5-9.7l-20.5-7.4c-0.5-0.2-0.8-0.8-0.6-1.4c0.2-0.5,0.8-0.8,1.4-0.6
		l20.5,7.4l3.5-9.7l-20.5-7.4c-0.3-0.1-0.5-0.3-0.6-0.5c-0.1-0.3-0.1-0.5,0-0.8C174.1,131.1,174.7,130.8,175.2,131z M189.2,145.2
		l-16.9-6.1c-2.5-0.9-5.3,0.5-6.2,2.9c-0.9,2.5,0.4,5.3,2.9,6.2l16.9,6.1l-0.9,2.6l-16.9-6.1c-2.5-0.9-5.3,0.5-6.2,2.9
		c-0.4,1.2-0.4,2.5,0.2,3.7c0.6,1.2,1.5,2.1,2.8,2.5l16.9,6.1l-0.9,2.6l-16.9-6.1c-2.5-0.9-5.3,0.5-6.2,2.9
		c-0.4,1.2-0.4,2.5,0.2,3.7c0.6,1.2,1.5,2.1,2.8,2.5l16.6,6c-2.8,4.9-8,8-13.8,8c-1.8,0-3.6-0.3-5.4-0.9l-22-7.9
		c-7.3-2.6-11.6-10.1-10.3-17.6l18.1,6.5c2.5,0.9,5.3-0.5,6.2-2.9c0.4-1.2,0.4-2.5-0.2-3.7c-0.6-1.2-1.5-2.1-2.8-2.5l-18.4-6.6
		l0.9-2.6l18.4,6.6c2.5,0.9,5.3-0.5,6.2-2.9c0.9-2.5-0.4-5.3-2.9-6.2l-18.4-6.6l0.9-2.6l18.4,6.6c2.5,0.9,5.3-0.5,6.2-2.9
		c0.9-2.5-0.4-5.3-2.9-6.2l-18.4-6.6l0.9-2.6l18.4,6.6c2.5,0.9,5.3-0.5,6.2-2.9c0.9-2.5-0.4-5.3-2.9-6.2l-18.2-6.6
		c2.7-5.3,8.2-8.8,14.2-8.8c1.8,0,3.6,0.3,5.4,0.9l22,7.9c4,1.4,7.2,4.3,9,8.2c1.5,3.3,1.9,6.9,1.1,10.3l-16.8-6
		c-2.5-0.9-5.3,0.5-6.2,2.9c-0.4,1.2-0.4,2.5,0.2,3.7s1.5,2.1,2.8,2.5l16.9,6.1L189.2,145.2z M146.2,195.8l-10-3.5v-10.1l20.6,6.1
		L146.2,195.8z M142.5,199l-0.2,14.3h-6l0-16.6v-0.2l6.2,2.2L142.5,199z"/>
</g>
</svg>
