<svg id="Layer_1" data-name="Layer 1" xmlns="http://www.w3.org/2000/svg" viewBox="0 0 35.9 18.66"><defs><style>.cls-1,.cls-2{fill:#fff;}.cls-1{stroke:#fff;stroke-miterlimit:10;}</style></defs><title>rachieLogoW</title><circle class="cls-1" cx="2.61" cy="16.05" r="2.11"/><path class="cls-2" d="M10,21.06a30.66,30.66,0,0,0,2.43-2.45,21,21,0,0,0,2.31-3.07,6.78,6.78,0,0,0,1.19-4.2c-0.2-1.44-1.27-2.61-3.06-3.7l-0.17-.11-0.24-.19a3.69,3.69,0,0,1-.48-0.44,2,2,0,0,1-.25-0.31,1.9,1.9,0,0,1-.25-0.45,2,2,0,0,1,0-1.58,1.88,1.88,0,0,1,.43-0.62,2.07,2.07,0,0,1,.42-0.33,2.13,2.13,0,0,1,.36-0.2A3.48,3.48,0,0,1,13,3.27,6.66,6.66,0,0,1,14.07,3a20.11,20.11,0,0,1,3.76-.21,63.66,63.66,0,0,1,7.42.75c2.49,0.39,5,.84,7.51,1.39A47.78,47.78,0,0,1,40.2,7.07a6.88,6.88,0,0,1,1.91,1.1,1.89,1.89,0,0,1,.53.76,1.64,1.64,0,0,1,.08.32,2,2,0,0,1,0,.39,1.55,1.55,0,0,1-.27.63,2.61,2.61,0,0,1-1.19.8,20.18,20.18,0,0,1-3.73.74c-2.36.33-4.64,0.63-6.79,0.88s-4.2.49-6,.8a14.48,14.48,0,0,0-2.54.61,1.36,1.36,0,0,0-.59.37,1.41,1.41,0,0,0,.58.58,21.12,21.12,0,0,0,3.52,1.68c2.05,0.8,3.25,1.2,3.25,1.2l-0.09.29s-1.22-.32-3.34-1a19.89,19.89,0,0,1-3.76-1.53,3.16,3.16,0,0,1-.53-0.39,1.33,1.33,0,0,1-.45-0.74,1,1,0,0,1,.41-0.91,2.82,2.82,0,0,1,.65-0.4,15.19,15.19,0,0,1,2.7-.82c3.75-.83,8.12-1.47,12.76-2.35a19.39,19.39,0,0,0,3.31-.79,3.54,3.54,0,0,0,.34-0.18,0.39,0.39,0,0,0-.09.21,0.7,0.7,0,0,0,0,.27c0.05,0.12,0,.07,0,0A5.59,5.59,0,0,0,39.44,9,46,46,0,0,0,32.3,7.29c-2.46-.41-4.94-0.74-7.39-1s-4.86-.4-7.14-0.41a22.25,22.25,0,0,0-3.2.11,4,4,0,0,0-.58.11l-0.07,0s0,0,0,0A0.9,0.9,0,0,1,14,6.08a1.2,1.2,0,0,0,.19-0.28,1.26,1.26,0,0,0,.09-0.47A1,1,0,0,0,14.22,5l-0.05-.09s0,0,0,0a0.72,0.72,0,0,0,.12.13l0.07,0.08,0.16,0.12,0.66,0.51a6.47,6.47,0,0,1,.7.59A8.35,8.35,0,0,1,17.1,7.73a6.35,6.35,0,0,1,1.19,3.44,6.65,6.65,0,0,1-.7,3.13,10.55,10.55,0,0,1-1.45,2.25,18.08,18.08,0,0,1-3,2.85,21.55,21.55,0,0,1-2.18,1.46c-0.52.3-.81,0.45-0.81,0.45Z" transform="translate(-6.83 -2.79)"/></svg>