<svg id="Layer_1" data-name="Layer 1" xmlns="http://www.w3.org/2000/svg" viewBox="0 0 8.39 4.5"><defs><style>.cls-1{fill:#fff;}</style></defs><title>rachieLogoWS</title><circle class="cls-1" cx="0.49" cy="3.97" r="0.49"/><path class="cls-1" d="M21.13,14.64s0.21-.21.54-0.6a7,7,0,0,0,.51-0.73,1.45,1.45,0,0,0,.22-0.93,1.31,1.31,0,0,0-.7-0.78,0.87,0.87,0,0,1-.21-0.18,0.67,0.67,0,0,1-.15-0.24,0.59,0.59,0,0,1,0-.46,0.64,0.64,0,0,1,.25-0.29l0.2-.1a2,2,0,0,1,.28-0.07A5.23,5.23,0,0,1,23,10.22a19.79,19.79,0,0,1,3.51.54,11.29,11.29,0,0,1,1.76.52,1.72,1.72,0,0,1,.48.28,0.53,0.53,0,0,1,.15.22,0.4,0.4,0,0,1-.06.38,0.42,0.42,0,0,1-.18.16l-0.15.07a4.8,4.8,0,0,1-.89.17c-1.11.16-2.14,0.23-3,.36a3.39,3.39,0,0,0-.59.13c-0.09,0-.13.09-0.12,0a0.34,0.34,0,0,0,.12.11,4.72,4.72,0,0,0,.81.4l0.76,0.29,0,0.1-0.79-.22a4.83,4.83,0,0,1-.89-0.35,0.46,0.46,0,0,1-.25-0.29,0.38,0.38,0,0,1,.27-0.35,3.61,3.61,0,0,1,.64-0.2c0.88-.21,1.9-0.37,3-0.59a4.54,4.54,0,0,0,.75-0.19l0,0s0,0,0,0a0.26,0.26,0,0,0,0,.18c0,0.07,0,0,0,.05A1.56,1.56,0,0,0,28,11.92a10.72,10.72,0,0,0-1.66-.37A25.33,25.33,0,0,0,23,11.26a4.39,4.39,0,0,0-.72,0l-0.11,0s0,0.06.14-.17a0.39,0.39,0,0,0,0-.28,0.21,0.21,0,0,0,0-.08c-0.07,0,0,0,.08.07a3.18,3.18,0,0,1,.6.61,1.63,1.63,0,0,1,.29.87,2,2,0,0,1-.56,1.31,3.85,3.85,0,0,1-.74.66,4.21,4.21,0,0,1-.72.42Z" transform="translate(-20.52 -10.22)"/></svg>