<?xml version="1.0" encoding="utf-8"?>
<!-- Generator: Adobe Illustrator 19.2.0, SVG Export Plug-In . SVG Version: 6.00 Build 0)  -->
<svg version="1.1" id="Capa_1" xmlns="http://www.w3.org/2000/svg" xmlns:xlink="http://www.w3.org/1999/xlink" x="0px" y="0px"
	 viewBox="0 0 425 425" style="enable-background:new 0 0 425 425;" xml:space="preserve">
<path d="M311.5,116h-198c-2,0-3.6,1.6-3.6,3.6c0,2,1.6,3.6,3.6,3.6h22.3v15.3h-1.9c-8.7,0-15.7,7-15.7,15.7v25.2
	c0,2,1.6,3.6,3.6,3.6h1.9c0.3,3.6,1.8,7.2,4.6,10l7.2,7.2c0.1,1,0.5,1.8,0.8,2.4l28.9,103.5c0.4,1.6,1.9,2.7,3.5,2.7
	c0.3,0,0.6,0,1-0.1c1.9-0.5,3.1-2.5,2.5-4.5l-27.6-99c4.5-1.2,9.5-4.9,13.1-8.5c3.3-3.3,5.9-6.9,7.4-10.2c0.3-0.6,0.5-1.1,0.6-1.6
	l14.3,8c0.6,0.3,1.2,0.5,1.8,0.5c1.3,0,2.5-0.7,3.2-1.9c1-1.7,0.3-4-1.4-4.9L164.1,176c-0.7-0.6-1.7-1.1-3.1-1.3l-1.7-1.7
	c0.7-0.7,1.2-1.6,1.2-2.7v-16c0-8.7-7-15.7-15.7-15.7H143v-15.3h59.2v15.3h-1.9c-8.7,0-15.7,7-15.7,15.7v16c0,2,1.6,3.6,3.6,3.6h0.7
	c-1.5,3.6-1.7,7.5-0.4,11.3l3.2,9.6c-0.4,1.2-0.4,2.3-0.2,3.1L187,305.2c-0.1,2,1.5,3.7,3.5,3.8c0.1,0,0.1,0,0.2,0
	c1.9,0,3.5-1.5,3.6-3.5l4.3-102c0.9,0.1,1.8,0.2,2.9,0.2c3.4,0,7.6-0.8,11.7-2.1c4.4-1.5,8.4-3.5,11.2-5.8c0.4-0.3,0.8-0.7,1.2-1
	l36.5,55.6l-19.7,53.7c-0.7,1.9,0.3,4,2.2,4.6c0.4,0.2,0.8,0.2,1.2,0.2c1.5,0,2.9-0.9,3.4-2.4L267,258l32.4,49.4
	c0.7,1.1,1.9,1.6,3,1.6c0.7,0,1.4-0.2,2-0.6c1.7-1.1,2.1-3.3,1-5l-35.4-53.8l17-46.5c0.4-0.7,0.8-1.5,1-2.7l7.2-7.2
	c2.7-2.7,4.3-6.2,4.6-10h1.9c2,0,3.6-1.6,3.6-3.6v-25.2c0-8.7-7-15.7-15.7-15.7h-1.9v-15.3h23.7c2,0,3.6-1.6,3.6-3.6
	C315.1,117.7,313.5,116,311.5,116z M133.4,175.7l3.1-3.1c3.4-3.4,8.9-3.4,12.3,0l4.1,4.1c-3.2,1.7-6.3,4.2-8.7,6.7
	c-2.8,2.8-5.1,5.8-6.7,8.7l-4.1-4.1C130,184.6,130,179.1,133.4,175.7z M152.5,191.8c-4,4-7.7,6.1-9.8,6.6c0.5-1.9,2.5-5.6,6.6-9.7
	c4-4,7.7-6.1,9.8-6.6C158.6,183.9,156.6,187.6,152.5,191.8z M153.3,154.3v12.4H153c-6.3-5.4-15.7-5.1-21.7,0.8l-3.1,3.1
	c-1.2,1.2-2.1,2.5-2.8,3.9v-20.1c0-4.7,3.8-8.5,8.5-8.5h11C149.5,145.9,153.3,149.7,153.3,154.3z M191.9,154.3
	c0-4.7,3.8-8.5,8.5-8.5h11c4.7,0,8.5,3.8,8.5,8.5v12.4h-1.2c-0.1,0-0.2,0-0.3,0c-1-0.9-2.1-1.6-3.4-2.2c-3.8-1.9-8.1-2.2-12.2-0.8
	l-4.1,1.4c-1.3,0.4-2.5,1-3.6,1.7c-0.1,0-0.3,0-0.4,0h-2.7L191.9,154.3L191.9,154.3z M197.3,188.4l-1.9-5.5
	c-0.7-2.2-0.6-4.6,0.5-6.7c1-2.1,2.8-3.6,5-4.4l4.1-1.4c2.2-0.7,4.6-0.6,6.7,0.5c2.1,1,3.6,2.8,4.4,5l1.9,5.5
	c-3.3,0.1-7,0.8-10.8,2.1C203.4,184.9,200,186.6,197.3,188.4z M210.9,194.7c-3.4,1.1-6.7,1.7-9.4,1.7c-1,0-1.8-0.1-2.3-0.2
	c1.2-1.4,4.4-3.8,10.2-5.8c3.4-1.1,6.7-1.7,9.4-1.7c1,0,1.8,0.1,2.3,0.2C219.9,190.3,216.7,192.8,210.9,194.7z M274.3,188.6
	c4.1,4.1,6.1,7.9,6.6,9.7c-2-0.5-5.8-2.6-9.8-6.6c-4.1-4.1-6.1-7.9-6.6-9.7C266.6,182.5,270.3,184.6,274.3,188.6z M290.2,188
	l-4.1,4.1c-1.6-2.9-3.9-5.9-6.7-8.7c-2.4-2.4-5.5-4.9-8.7-6.7l4.1-4.1c3.4-3.4,8.9-3.4,12.3,0l3.1,3.1c1.6,1.6,2.6,3.8,2.6,6.2
	C292.8,184.2,291.9,186.4,290.2,188z M298.2,154.3v20.1c-0.7-1.4-1.7-2.7-2.8-3.9l-3.1-3.1c-5.9-5.9-15.4-6.2-21.7-0.8h-0.4v-12.4
	c0-4.7,3.8-8.5,8.5-8.5h11C294.4,145.9,298.2,149.7,298.2,154.3z M280.6,138.6h-1.9c-8.7,0-15.7,7-15.7,15.7v16c0,1.1,0.5,2,1.2,2.7
	l-1.7,1.7c-1.4,0.2-2.4,0.7-3.1,1.3l-19.4,10.8c-1.7,1-2.4,3.2-1.4,4.9c0.7,1.2,1.9,1.9,3.2,1.9c0.6,0,1.2-0.1,1.8-0.5l14.3-8
	c0.2,0.5,0.4,1,0.6,1.6c1.5,3.3,4.1,6.9,7.4,10.2c3.4,3.4,8.2,7.1,12.6,8.3L265.2,242l-36.8-56c-0.4-0.8-1-1.8-2.2-2.6l-3.1-9.4h0.4
	c2,0,3.6-1.6,3.6-3.6v-16c0-8.7-7-15.7-15.7-15.7h-1.9v-15.3h71.1L280.6,138.6L280.6,138.6z"/>
</svg>
