<?xml version="1.0" encoding="utf-8"?>
<!-- Generator: Adobe Illustrator 19.2.0, SVG Export Plug-In . SVG Version: 6.00 Build 0)  -->
<svg version="1.1" id="Capa_1" xmlns="http://www.w3.org/2000/svg" xmlns:xlink="http://www.w3.org/1999/xlink" x="0px" y="0px"
	 viewBox="0 0 513.4 513.4" style="enable-background:new 0 0 513.4 513.4;" xml:space="preserve">
<g>
	<path d="M182.2,210.1c15.1,0,27.5-12.3,27.5-27.5c0-15.1-12.3-27.5-27.5-27.5c-15.1,0-27.5,12.3-27.5,27.5
		C154.7,197.8,167.1,210.1,182.2,210.1z"/>
	<path d="M245,180.3c-3,0-5.8,1.1-8,3.2l-10.6,10c-2.1,2-6,5.1-8.4,6.7l-21.4,14.5h-32c-5.4,0-8.2,1.6-10.4,4.4l-13.9,17.4
		c-2.3,2.8-5.8,7.5-8,10.4l-9.4,12.9c-1.8,2.5-2.6,5.6-2.1,8.6c0.5,3.1,2.1,5.8,4.6,7.6c2,1.5,4.4,2.3,6.9,2.3
		c3.7,0,7.2-1.8,9.4-4.7l9.4-12.9c0.1-0.1,0.1-0.1,0.2-0.2l-2,22.3l-16.3,77.5c-0.7,3.2-0.1,6.5,1.7,9.2c1.8,2.7,4.5,4.6,7.7,5.3
		c0.8,0.2,1.7,0.3,2.5,0.3c5.8,0,10.8-4.1,12-9.7l15.3-72.5h4l2.2,24.5c0.3,2.9,0.4,8.1,0.3,11.1l-1.3,34c-0.1,3.3,1,6.4,3.3,8.8
		s5.3,3.8,8.5,3.9c0.2,0,0.3,0,0.5,0c6.6,0,12-5.2,12.2-11.8l1.3-34c0.2-4,0-10.2-0.4-14.2l-3.3-36.6c0-0.1,0-0.2,0-0.3l3.5-39.6
		l28.1-19.1c3.4-2.3,8.3-6.2,11.3-9l10.6-10c4.7-4.4,4.9-11.8,0.5-16.4C251.2,181.7,248.1,180.3,245,180.3z"/>
	<path d="M330,201.6c15.1,0,27.5-12.3,27.5-27.5c0-15.1-12.3-27.5-27.5-27.5c-15.1,0-27.5,12.3-27.5,27.5
		C302.5,189.3,314.8,201.6,330,201.6z"/>
	<path d="M371.8,265c2.2,3,5.7,4.7,9.4,4.7c2.5,0,4.9-0.8,6.9-2.3c2.5-1.8,4.1-4.5,4.6-7.6c0.5-3.1-0.3-6.1-2.1-8.6l-9.4-12.9
		c-2.1-2.9-5.7-7.6-8-10.4l-13.9-17.4c-2.2-2.8-4.7-4.4-9.1-4.4c-0.1,0-34.5,0-34.5,0l-21.4-14.5c-2.6-1.7-5.9-4.4-7.2-5.6l-3.4-3.2
		c-2.2-2-5-3.2-8-3.2c-3.2,0-6.3,1.3-8.5,3.7c-2.1,2.3-3.2,5.2-3.2,8.3c0.1,3.1,1.4,6,3.7,8.1l3.4,3.2c2.3,2.2,6.6,5.5,10,7.9
		l28.1,19.1l3.5,39.6c0,0.1,0,0.2,0,0.3l-3.3,36.6c-0.5,5.4,0.7,12.9,2.7,17.9l9.7,23.8c1.9,4.6,6.3,7.6,11.3,7.6
		c1.6,0,3.1-0.3,4.6-0.9c3-1.2,5.4-3.6,6.7-6.6c1.3-3,1.3-6.3,0-9.4l-9.7-23.8c-0.6-1.4-1.1-4.9-1-6.4l2.2-24.5h4l5.8,27.6
		c1.1,5.1,4.3,9.4,8.7,11.9c2.6,1.4,5.5,2.2,8.5,2.2c2.1,0,4.2-0.4,6.2-1.1l12.8-4.7c6.3-2.3,9.6-9.4,7.3-15.7
		c-1.8-4.8-6.4-8-11.5-8c-1.4,0-2.9,0.3-4.2,0.8l-5.5,2l-5.2-24.9l-2.2-24.1c0.6,0.7,1.1,1.4,1.5,2L371.8,265z"/>
	<path d="M270.4,162.8c0.3,0.1,0.7,0.1,1,0.1c1.8,0,3.4-1.2,3.9-3c1.3-5,4.5-12.7,7.2-13.9c2-0.9,2.9-3.3,1.9-5.3
		c-0.9-2-3.3-2.9-5.3-1.9c-7.2,3.4-10.9,16.6-11.5,19.2C267,160.1,268.3,162.3,270.4,162.8z"/>
	<path d="M252.1,152.4c-2-0.9-4.4-0.1-5.3,1.9c-0.9,2-0.1,4.4,1.9,5.3c2.7,1.3,5.9,8.9,7.2,13.9c0.5,1.8,2.1,3,3.9,3
		c0.3,0,0.7,0,1-0.1c2.1-0.5,3.4-2.7,2.9-4.8C262.9,168.9,259.3,155.7,252.1,152.4z"/>
</g>
</svg>
